<svg width="500" height="500" viewBox="0 0 500 500" fill="none" xmlns="http://www.w3.org/2000/svg">
<path d="M73.191 346.785C138.699 412.294 239.346 421.202 314.43 373.536L409.538 468.644C426.136 485.241 453.045 485.241 469.642 468.643C486.239 452.046 486.239 425.136 469.642 408.539L374.534 313.433C422.201 238.349 413.293 137.701 347.784 72.1923C271.957 -3.63442 149.018 -3.63442 73.191 72.1923C-2.63576 148.019 -2.63576 270.958 73.191 346.785ZM129.76 290.217C85.1747 245.632 85.1747 173.346 129.76 128.761C174.344 84.1761 246.631 84.1761 291.215 128.761C335.8 173.346 335.8 245.632 291.215 290.217C246.631 334.801 174.344 334.801 129.76 290.217Z" fill="black" stroke="white" stroke-width="30" stroke-linecap="round"/>
</svg>
